<svg xmlns="http://www.w3.org/2000/svg" width="24" height="24" fill="none" class="foundry_v1yii70 foundry_v1yii72" viewBox="0 0 24 24" aria-hidden="true" focusable="false"><path fill="currentColor" d="M21.584 7.186a2.5 2.5 0 0 0-1.769-1.768C18.255 5 12 5 12 5s-6.255 0-7.814.418a2.5 2.5 0 0 0-1.768 1.768C2 8.746 2 12 2 12s0 3.255.418 4.814c.23.86.907 1.537 1.768 1.768C5.746 19 12 19 12 19s6.255 0 7.814-.418a2.5 2.5 0 0 0 1.768-1.768C22 15.254 22 12 22 12s0-3.255-.418-4.814zM10 15V9l5.196 3z"></path></svg>