<svg xmlns="http://www.w3.org/2000/svg" width="16" height="16" fill="none" class="foundry_v1yii70 foundry_v1yii71" viewBox="0 0 16 16" aria-hidden="true" focusable="false"><path fill="currentColor" d="M2.803 7.25h2.483a11.2 11.2 0 0 1 1.217-4.283 5.26 5.26 0 0 0-3.7 4.283M8 3.355A9.6 9.6 0 0 0 6.792 7.25h2.416A9.6 9.6 0 0 0 8 3.355M9.208 8.75A9.6 9.6 0 0 1 8 12.645 9.6 9.6 0 0 1 6.792 8.75zm-3.922 0H2.803a5.26 5.26 0 0 0 3.7 4.283A11.2 11.2 0 0 1 5.286 8.75m4.211 4.283a11.2 11.2 0 0 0 1.217-4.283h2.483a5.26 5.26 0 0 1-3.7 4.283m3.7-5.783h-2.483a11.2 11.2 0 0 0-1.217-4.283 5.26 5.26 0 0 1 3.7 4.283M1.25 8a6.75 6.75 0 1 1 13.5 0 6.75 6.75 0 0 1-13.5 0" fill-rule="evenodd" clip-rule="evenodd"></path></svg>