<svg xmlns="http://www.w3.org/2000/svg" width="24" height="24" fill="none" class="foundry_v1yii70 foundry_v1yii72" viewBox="0 0 24 24" aria-hidden="true" focusable="false"><path fill="currentColor" d="M18.248 6.342A15 15 0 0 0 14.534 5.2q-.263.47-.476.967a13.8 13.8 0 0 0-4.12 0q-.213-.495-.476-.967a15 15 0 0 0-3.717 1.145c-2.35 3.477-2.987 6.868-2.669 10.21a15 15 0 0 0 4.555 2.287 11 11 0 0 0 .975-1.573 9.7 9.7 0 0 1-1.536-.733q.195-.142.377-.283a10.7 10.7 0 0 0 9.106 0q.186.152.377.283c-.49.29-1.006.535-1.54.735q.421.827.976 1.571a14.9 14.9 0 0 0 4.558-2.285c.373-3.876-.639-7.236-2.676-10.215M9.01 14.5c-.888 0-1.621-.806-1.621-1.796 0-.992.708-1.804 1.618-1.804s1.638.812 1.623 1.803c-.016.992-.715 1.797-1.62 1.797m5.98 0c-.889 0-1.62-.806-1.62-1.796 0-.992.708-1.804 1.62-1.804s1.634.812 1.618 1.803c-.015.992-.713 1.797-1.618 1.797"></path></svg>